<svg version="1.1" id="Layer_1" xmlns="http://www.w3.org/2000/svg" xmlns:xlink="http://www.w3.org/1999/xlink" x="0px" y="0px"
	 width="100%" viewBox="0 0 200 200" enable-background="new 0 0 200 200" xml:space="preserve">
<path fill="#E5E5E5" opacity="1.000000" stroke="none" 
	d="
M201.000000,151.000000 
	C201.000000,152.066513 201.000000,153.133041 200.627274,154.578674 
	C198.421021,153.996841 196.584503,153.041565 194.754440,152.074081 
	C165.228333,136.465103 135.705078,120.850777 106.168129,105.262352 
	C105.257721,104.781876 104.207253,104.566780 102.841187,104.096970 
	C102.841187,109.764961 102.714096,114.915840 102.893181,120.056053 
	C102.986954,122.747269 103.618195,125.419746 104.101547,128.238968 
	C104.196388,128.377243 104.651039,128.446869 104.651039,128.446869 
	C104.651039,128.446869 104.993004,128.104050 105.455841,128.022141 
	C116.282463,128.025681 126.646233,128.111130 137.081802,128.359802 
	C137.284271,128.731918 137.463470,128.883438 137.789185,129.438354 
	C137.932373,150.917099 137.977585,171.935089 137.728149,193.252182 
	C135.966721,193.699417 134.500000,193.975250 133.033066,193.976547 
	C110.021049,193.996735 87.008995,193.981552 63.960068,193.601227 
	C63.889908,192.980103 63.856636,192.732269 63.771149,192.050613 
	C63.777149,170.391571 63.835358,149.166336 64.369881,127.945358 
	C76.064484,127.949615 87.282776,127.949615 98.496498,127.949615 
	C98.496498,119.556976 98.496498,111.913551 98.496498,103.363907 
	C86.182495,110.065445 74.570831,116.384758 62.599243,122.777176 
	C44.806946,132.014740 27.393618,141.215805 9.923079,150.306931 
	C7.078415,151.787201 3.980731,152.781219 1.000000,154.000000 
	C1.000000,153.250000 1.000000,152.500000 1.355066,151.518860 
	C2.479907,150.984467 3.287311,150.752335 4.013968,150.367645 
	C25.025497,139.244797 46.030128,128.108917 67.033218,116.970131 
	C77.222717,111.566238 87.406914,106.152336 98.073318,100.488174 
	C95.939537,99.088585 94.441971,98.106300 92.967155,96.749466 
	C93.006691,96.125320 93.023476,95.875732 93.400314,95.725342 
	C95.308029,96.313553 96.855690,96.802567 99.008110,97.482666 
	C99.008110,90.477844 98.831009,83.889008 99.077438,77.316040 
	C99.215576,73.631416 97.637619,72.876022 94.357140,72.928261 
	C84.233131,73.089462 74.105118,72.999321 63.884689,72.545349 
	C63.839630,51.063259 63.888542,30.042614 64.241470,9.004450 
	C65.026062,8.659737 65.506630,8.332545 66.365555,8.007202 
	C90.554420,8.036527 114.364944,8.064005 138.062561,8.542145 
	C137.949661,30.242062 137.949661,51.491314 137.949661,73.294289 
	C125.889961,73.294289 114.494530,73.294289 103.257996,73.294289 
	C103.257996,81.544006 103.257996,89.228134 103.257996,97.461151 
	C120.742668,88.364067 137.672791,79.555511 154.884583,70.913025 
	C155.451813,71.400284 155.737381,71.721458 155.785004,72.288452 
	C138.320679,81.679955 121.094315,90.825630 103.373848,100.233635 
	C104.749695,101.100693 105.287918,101.490753 105.869469,101.799080 
	C136.176254,117.867798 166.480835,133.940781 196.818085,149.951797 
	C198.052612,150.603333 199.598938,150.664032 201.000000,151.000000 
z"/>
<path fill="#12305E" opacity="1.000000" stroke="none" 
	d="
M201.000000,150.531342 
	C199.598938,150.664032 198.052612,150.603333 196.818085,149.951797 
	C166.480835,133.940781 136.176254,117.867798 105.869469,101.799080 
	C105.287918,101.490753 104.749695,101.100693 103.373848,100.233635 
	C121.094315,90.825630 138.320679,81.679955 156.142532,72.242134 
	C169.479172,65.234001 182.198029,58.474979 194.986450,51.850266 
	C196.818756,50.901089 198.987152,50.600666 201.000000,50.000000 
	C201.000000,61.020893 201.000000,72.041786 200.716415,83.832916 
	C200.621887,89.068771 200.810944,93.534386 201.000000,98.000000 
	C201.000000,115.354225 201.000000,132.708450 201.000000,150.531342 
z"/>
<path fill="#E12937" opacity="1.000000" stroke="none" 
	d="
M92.944405,97.124023 
	C94.441971,98.106300 95.939537,99.088585 98.073318,100.488174 
	C87.406914,106.152336 77.222717,111.566238 67.033218,116.970131 
	C46.030128,128.108917 25.025497,139.244797 4.013968,150.367645 
	C3.287311,150.752335 2.479907,150.984467 1.355066,151.143860 
	C1.000000,117.312439 1.000000,83.624878 1.333353,49.568192 
	C16.485363,57.058723 31.277994,64.967957 46.129829,72.764412 
	C61.705109,80.940636 77.337166,89.008690 92.944405,97.124023 
z"/>
<path fill="#13315E" opacity="1.000000" stroke="none" 
	d="
M154.602921,70.746948 
	C137.672791,79.555511 120.742668,88.364067 103.257996,97.461151 
	C103.257996,89.228134 103.257996,81.544006 103.257996,73.294289 
	C114.494530,73.294289 125.889961,73.294289 137.949661,73.294289 
	C137.949661,51.491314 137.949661,30.242062 138.519882,8.544359 
	C151.104538,8.241395 163.118973,8.386881 175.303436,8.847196 
	C186.861038,13.616496 194.707245,21.505739 198.853302,33.070408 
	C199.139114,33.867672 200.264847,34.363823 201.000000,35.000000 
	C201.000000,38.361286 201.000000,41.722576 200.672974,45.680408 
	C185.098267,54.433617 169.850586,62.590279 154.602921,70.746948 
z"/>
<path fill="#13315E" opacity="1.000000" stroke="none" 
	d="
M137.010010,128.196564 
	C126.646233,128.111130 116.282463,128.025681 105.209549,127.941757 
	C104.335838,127.995750 104.171272,128.048233 104.006699,128.100693 
	C103.618195,125.419746 102.986954,122.747269 102.893181,120.056053 
	C102.714096,114.915840 102.841187,109.764961 102.841187,104.096970 
	C104.207253,104.566780 105.257721,104.781876 106.168129,105.262352 
	C135.705078,120.850777 165.228333,136.465103 194.754440,152.074081 
	C196.584503,153.041565 198.421021,153.996841 200.627274,154.978882 
	C201.000000,158.692902 201.000000,162.385818 200.658020,166.614624 
	C199.722595,167.716843 198.841934,168.173721 198.578232,168.865707 
	C193.647369,181.804520 184.254868,189.607025 170.535675,192.988861 
	C159.386276,192.951782 148.704529,192.952423 138.022781,192.953064 
	C137.977585,171.935089 137.932373,150.917099 137.840820,129.205307 
	C137.643234,128.131927 137.381744,128.026947 137.010010,128.196564 
z"/>
<path fill="#D17530" opacity="1.000000" stroke="none" 
	d="
M63.937450,9.021971 
	C63.888542,30.042614 63.839630,51.063259 63.790482,72.891266 
	C63.755806,74.180458 63.721367,74.662292 63.572830,75.461128 
	C62.940208,79.624557 60.875004,77.657433 59.274483,76.816231 
	C42.386917,67.940346 25.533749,58.998882 8.628937,50.156101 
	C6.200209,48.885654 3.548511,48.041458 1.000000,47.000000 
	C1.000000,43.307091 1.000000,39.614182 1.345001,35.367409 
	C4.979769,26.938215 8.981114,19.502899 16.182985,14.496058 
	C19.678736,12.065763 23.579464,10.217998 27.743805,8.174124 
	C33.603523,8.161937 39.018707,7.943966 44.428410,8.038750 
	C50.616848,8.147177 56.800415,8.533585 63.214142,8.896732 
	C63.442184,8.994255 63.937450,9.021971 63.937450,9.021971 
z"/>
<path fill="#57B45A" opacity="1.000000" stroke="none" 
	d="
M1.000000,154.458069 
	C3.980731,152.781219 7.078415,151.787201 9.923079,150.306931 
	C27.393618,141.215805 44.806946,132.014740 62.635632,123.174225 
	C63.319149,124.979149 63.606358,126.460121 63.893566,127.941093 
	C63.835358,149.166336 63.777149,170.391571 63.333797,192.197159 
	C53.829563,192.843170 44.710503,192.955856 35.591370,192.961853 
	C25.547890,192.968460 16.924208,189.250870 10.743948,181.453400 
	C6.820995,176.503906 4.203134,170.520020 1.000002,165.000000 
	C1.000000,161.638718 1.000000,158.277420 1.000000,154.458069 
z"/>
<path fill="#FFFFFF" opacity="1.000000" stroke="none" 
	d="
M137.728149,193.252182 
	C148.704529,192.952423 159.386276,192.951782 170.849411,193.259827 
	C181.420532,193.712341 191.210266,193.856171 201.000000,194.000000 
	C201.000000,196.327911 201.000000,198.655838 201.000000,200.987335 
	C134.333328,200.990936 67.666664,200.990936 1.000000,200.986404 
	C1.000000,198.986526 1.000000,196.991165 1.468650,194.494843 
	C22.623852,193.987411 43.310402,193.980957 63.996956,193.974503 
	C87.008995,193.981552 110.021049,193.996735 133.033066,193.976547 
	C134.500000,193.975250 135.966721,193.699417 137.728149,193.252182 
z"/>
<path fill="#FDFEFD" opacity="1.000000" stroke="none" 
	d="
M62.986099,8.799210 
	C56.800415,8.533585 50.616848,8.147177 44.428410,8.038750 
	C39.018707,7.943966 33.603523,8.161937 27.267811,8.124331 
	C17.896574,8.004615 9.448287,8.002308 1.000000,8.000000 
	C1.000000,5.672085 1.000000,3.344171 1.000000,1.012661 
	C67.666664,1.009066 134.333328,1.009066 201.000000,1.013599 
	C201.000000,3.013485 201.000000,5.008838 200.587128,7.474543 
	C191.827301,8.140718 183.480362,8.336542 175.133408,8.532366 
	C163.118973,8.386881 151.104538,8.241395 138.632782,8.093697 
	C114.364944,8.064005 90.554420,8.036527 66.034515,7.982086 
	C64.545456,8.236485 63.765778,8.517848 62.986099,8.799210 
z"/>
<path fill="#E3E5E3" opacity="1.000000" stroke="none" 
	d="
M63.960068,193.601227 
	C43.310402,193.980957 22.623852,193.987411 1.468650,193.996933 
	C1.000000,184.645767 1.000000,175.291550 1.000002,165.468658 
	C4.203134,170.520020 6.820995,176.503906 10.743948,181.453400 
	C16.924208,189.250870 25.547890,192.968460 35.591370,192.961853 
	C44.710503,192.955856 53.829563,192.843170 63.386009,192.630966 
	C63.856636,192.732269 63.889908,192.980103 63.960068,193.601227 
z"/>
<path fill="#DCDDDF" opacity="1.000000" stroke="none" 
	d="
M201.000000,193.532394 
	C191.210266,193.856171 181.420532,193.712341 171.317078,193.297546 
	C184.254868,189.607025 193.647369,181.804520 198.578232,168.865707 
	C198.841934,168.173721 199.722595,167.716843 200.658020,167.075256 
	C201.000000,169.700012 201.000000,172.400024 200.797180,175.595612 
	C200.729584,176.394119 200.864792,176.697052 201.000000,177.000000 
	C201.000000,182.354935 201.000000,187.709854 201.000000,193.532394 
z"/>
<path fill="#E1E2E3" opacity="1.000000" stroke="none" 
	d="
M175.303436,8.847196 
	C183.480362,8.336542 191.827301,8.140718 200.587128,7.972447 
	C201.000000,16.687563 201.000000,25.375128 201.000000,34.531349 
	C200.264847,34.363823 199.139114,33.867672 198.853302,33.070408 
	C194.707245,21.505739 186.861038,13.616496 175.303436,8.847196 
z"/>
<path fill="#DFD1CF" opacity="1.000000" stroke="none" 
	d="
M1.000000,47.333332 
	C3.548511,48.041458 6.200209,48.885654 8.628937,50.156101 
	C25.533749,58.998882 42.386917,67.940346 59.274483,76.816231 
	C60.875004,77.657433 62.940208,79.624557 63.633282,75.837463 
	C64.600998,77.546509 64.980446,79.740356 66.277885,80.726814 
	C68.608635,82.498909 71.536003,83.464531 74.133148,84.912315 
	C80.460190,88.439339 86.740898,92.049469 93.040268,95.626144 
	C93.023476,95.875732 93.006691,96.125320 92.967155,96.749466 
	C77.337166,89.008690 61.705109,80.940636 46.129829,72.764412 
	C31.277994,64.967957 16.485363,57.058723 1.333353,49.099533 
	C1.000000,48.555553 1.000000,48.111111 1.000000,47.333332 
z"/>
<path fill="#E5E3E2" opacity="1.000000" stroke="none" 
	d="
M1.000000,8.468656 
	C9.448287,8.002308 17.896574,8.004615 26.820856,8.056717 
	C23.579464,10.217998 19.678736,12.065763 16.182985,14.496058 
	C8.981114,19.502899 4.979769,26.938215 1.345001,34.906769 
	C1.000000,26.312437 1.000000,17.624874 1.000000,8.468656 
z"/>
<path fill="#C6CBD0" opacity="1.000000" stroke="none" 
	d="
M154.884583,70.913025 
	C169.850586,62.590279 185.098267,54.433617 200.672974,46.138477 
	C201.000000,47.066669 201.000000,48.133339 201.000000,49.600006 
	C198.987152,50.600666 196.818756,50.901089 194.986450,51.850266 
	C182.198029,58.474979 169.479172,65.234001 156.380493,71.996315 
	C155.737381,71.721458 155.451813,71.400284 154.884583,70.913025 
z"/>
<path fill="#3D5361" opacity="1.000000" stroke="none" 
	d="
M201.000000,97.535355 
	C200.810944,93.534386 200.621887,89.068771 200.716415,84.301575 
	C201.000000,88.356903 201.000000,92.713799 201.000000,97.535355 
z"/>
<path fill="#ABA9A9" opacity="1.000000" stroke="none" 
	d="
M201.000000,176.750000 
	C200.864792,176.697052 200.729584,176.394119 200.797180,176.045593 
	C201.000000,176.000000 201.000000,176.500000 201.000000,176.750000 
z"/>
<path fill="#95BAE0" opacity="1.000000" stroke="none" 
	d="
M93.400314,95.725342 
	C86.740898,92.049469 80.460190,88.439339 74.133148,84.912315 
	C71.536003,83.464531 68.608635,82.498909 66.277885,80.726814 
	C64.980446,79.740356 64.600998,77.546509 63.747383,75.520462 
	C63.721367,74.662292 63.755806,74.180458 63.884453,73.352715 
	C74.105118,72.999321 84.233131,73.089462 94.357140,72.928261 
	C97.637619,72.876022 99.215576,73.631416 99.077438,77.316040 
	C98.831009,83.889008 99.008110,90.477844 99.008110,97.482666 
	C96.855690,96.802567 95.308029,96.313553 93.400314,95.725342 
z"/>
<path fill="#2E6AB5" opacity="1.000000" stroke="none" 
	d="
M64.369881,127.945358 
	C63.606358,126.460121 63.319149,124.979149 62.995552,123.101120 
	C74.570831,116.384758 86.182495,110.065445 98.496498,103.363907 
	C98.496498,111.913551 98.496498,119.556976 98.496498,127.949615 
	C87.282776,127.949615 76.064484,127.949615 64.369881,127.945358 
z"/>
<path fill="#DFD1CF" opacity="1.000000" stroke="none" 
	d="
M63.214142,8.896732 
	C63.765778,8.517848 64.545456,8.236485 65.656174,7.980239 
	C65.506630,8.332545 65.026062,8.659737 64.241470,9.004450 
	C63.937450,9.021971 63.442184,8.994255 63.214142,8.896732 
z"/>
<path fill="#DCDDDF" opacity="1.000000" stroke="none" 
	d="
M104.101547,128.238968 
	C104.171272,128.048233 104.335838,127.995750 104.746704,128.023651 
	C104.993004,128.104050 104.651039,128.446869 104.651039,128.446869 
	C104.651039,128.446869 104.196388,128.377243 104.101547,128.238968 
z"/>
<path fill="#DCDDDF" opacity="1.000000" stroke="none" 
	d="
M137.081802,128.359802 
	C137.381744,128.026947 137.643234,128.131927 137.742828,128.744537 
	C137.463470,128.883438 137.284271,128.731918 137.081802,128.359802 
z"/>
</svg>