<?xml version="1.0" standalone="no"?>
<!DOCTYPE svg PUBLIC "-//W3C//DTD SVG 20010904//EN"
 "http://www.w3.org/TR/2001/REC-SVG-20010904/DTD/svg10.dtd">
<svg version="1.0" xmlns="http://www.w3.org/2000/svg"
 width="200.000000pt" height="200.000000pt" viewBox="0 0 200.000000 200.000000"
 preserveAspectRatio="xMidYMid meet">

<g transform="translate(0.000000,200.000000) scale(0.100000,-0.100000)"
fill="#000000" stroke="none">
<path d="M0 1000 l0 -1000 1000 0 1000 0 0 1000 0 1000 -1000 0 -1000 0 0
-1000z m1008 251 c8 -4 12 -19 10 -32 -2 -19 -9 -24 -33 -24 -33 0 -45 25 -25
50 14 17 29 19 48 6z m172 -12 c9 -15 8 -24 -1 -35 -18 -21 -57 -18 -64 6 -14
44 44 69 65 29z m-731 -29 c46 -13 96 -48 116 -82 22 -37 10 -36 -23 3 -52 63
-156 87 -228 53 -19 -9 -48 -32 -65 -51 -16 -19 -33 -33 -35 -30 -10 10 28 56
62 78 61 38 113 46 173 29z m-4 -31 c83 -23 140 -120 116 -198 -11 -38 -68
-108 -78 -97 -4 4 13 66 35 124 2 6 -1 12 -7 12 -6 0 -11 -8 -11 -19 0 -10 -6
-33 -14 -51 l-13 -32 -12 32 c-6 18 -11 41 -11 51 0 11 -7 19 -16 19 -10 0
-14 -6 -10 -15 3 -8 -1 -31 -8 -52 -14 -40 -15 -39 -36 30 -8 26 -17 37 -31
37 -13 0 -19 7 -19 24 0 19 6 25 26 28 65 8 55 71 -12 76 l-39 3 0 -68 c0 -59
3 -69 20 -73 13 -4 29 -28 46 -69 l26 -63 18 44 17 43 20 -44 c22 -53 16 -61
-55 -61 -159 0 -237 183 -119 280 56 46 101 57 167 39z m379 -42 c10 -7 16
-22 14 -33 -4 -18 -13 -20 -63 -12 -11 2 -21 -3 -23 -13 -2 -12 9 -19 42 -28
68 -17 86 -66 43 -116 -40 -47 -147 -28 -147 26 0 27 27 35 50 14 10 -9 27
-15 37 -13 31 6 20 30 -22 45 -68 23 -86 73 -40 118 27 28 80 33 109 12z m126
-37 l5 -44 42 49 c35 42 46 48 60 39 28 -17 25 -29 -16 -75 l-39 -44 39 -41
c27 -27 38 -46 33 -57 -10 -28 -41 -19 -77 23 -19 22 -37 40 -40 40 -4 0 -7
-18 -7 -40 0 -36 -2 -40 -25 -40 l-25 0 0 113 c0 63 3 117 7 121 19 18 38 -1
43 -44z m219 36 c8 -9 11 -50 9 -117 -3 -103 -3 -104 -28 -104 -25 0 -25 0
-28 104 -1 58 0 111 2 118 7 17 31 17 45 -1z m99 2 c7 -7 12 -44 12 -95 l0
-83 43 0 c50 0 72 -12 64 -34 -5 -13 -22 -16 -87 -16 l-80 0 0 113 c0 63 3
117 7 120 10 11 28 8 41 -5z m210 -85 l3 -92 52 -3 c45 -3 52 -6 55 -25 3 -22
1 -23 -77 -23 l-81 0 0 113 c0 63 3 117 7 121 4 4 14 5 23 4 12 -3 16 -22 18
-95z m291 80 c20 -16 20 -20 8 -38 -13 -17 -18 -18 -42 -7 -21 10 -31 10 -39
2 -13 -14 17 -40 46 -40 27 0 58 -36 58 -68 0 -39 -39 -74 -83 -75 -42 -1 -87
26 -87 54 0 27 27 35 49 15 10 -9 28 -16 40 -16 33 0 23 31 -14 43 -16 5 -40
19 -52 30 -69 62 44 158 116 100z m-1391 -17 c2 -10 -2 -22 -10 -27 -25 -17
-38 -9 -38 22 0 26 3 30 22 27 13 -2 24 -11 26 -22z m-137 -195 c70 -100 239
-101 307 0 29 42 49 51 29 13 -65 -125 -253 -140 -345 -28 -18 21 -32 42 -32
46 0 17 16 5 41 -31z"/>
</g>
</svg>
